<svg width="20" height="20" viewBox="0 0 20 20" fill="none" xmlns="http://www.w3.org/2000/svg">
<path d="M12.1875 6.05469H15.7422C15.8516 6.05469 15.9375 5.96875 15.9375 5.85937C15.9375 5.51172 15.7852 5.18359 15.5195 4.96484L12.5391 2.48047C12.3125 2.29297 12.0312 2.19141 11.7344 2.19141C11.5742 2.19141 11.4453 2.32031 11.4453 2.48047V5.3125C11.4453 5.72266 11.7773 6.05469 12.1875 6.05469Z" fill="black"/>
<path d="M10.4297 5.3125V2.1875H5.3125C4.625 2.1875 4.0625 2.75 4.0625 3.4375V16.5625C4.0625 17.25 4.625 17.8125 5.3125 17.8125H14.6875C15.375 17.8125 15.9375 17.25 15.9375 16.5625V7.07031H12.1875C11.2188 7.07031 10.4297 6.28125 10.4297 5.3125Z" fill="black"/>
</svg>
