<svg width="20" height="14" viewBox="0 0 20 14" fill="none" xmlns="http://www.w3.org/2000/svg">
<path d="M17.557 0.211121H2.44296C1.09597 0.211121 0 1.30709 0 2.65408V11.3459C0 12.6929 1.09597 13.7888 2.44296 13.7888H17.557C18.904 13.7888 20 12.6929 20 11.3459V2.65434C20.0003 1.30709 18.9043 0.211121 17.557 0.211121ZM16.3633 1.80487L10 5.90454L3.63668 1.80487H16.3633ZM17.557 12.1953H2.44296C1.97466 12.1953 1.59375 11.8142 1.59375 11.3461V2.6995L9.50833 7.78888C9.51895 7.79552 9.53037 7.80004 9.54126 7.80615C9.55269 7.81252 9.56437 7.81863 9.57606 7.82448C9.63742 7.85609 9.70064 7.88159 9.76519 7.89832C9.77183 7.90018 9.77847 7.90098 9.78511 7.90257C9.85603 7.9193 9.92775 7.92966 9.99947 7.92966C9.99973 7.92966 10 7.92966 10 7.92966C10.0005 7.92966 10.0008 7.92966 10.0011 7.92966C10.0728 7.92966 10.1445 7.91957 10.2154 7.90257C10.2221 7.90098 10.2287 7.90018 10.2353 7.89832C10.2999 7.88159 10.3628 7.85609 10.4245 7.82448C10.4362 7.81863 10.4478 7.81252 10.4593 7.80615C10.4702 7.80004 10.4816 7.79552 10.4922 7.78888L18.4068 2.6995V11.3459C18.4065 11.8142 18.0253 12.1953 17.557 12.1953Z" fill="black"/>
</svg>
