<svg width="20" height="20" viewBox="0 0 20 20" fill="none" xmlns="http://www.w3.org/2000/svg">
<g clip-path="url(#clip0_101_141)">
<path d="M19.7857 15.1676C19.0412 13.7601 16.4558 12.234 16.342 12.1673C16.0098 11.9782 15.6631 11.8781 15.3387 11.8781C14.8563 11.8781 14.4614 12.0991 14.2223 12.501C13.8441 12.9533 13.3751 13.4821 13.2612 13.564C12.3803 14.1617 11.6907 14.0938 10.9276 13.3308L6.66898 9.07176C5.91076 8.31354 5.84105 7.61538 6.43465 6.73926C6.5177 6.62469 7.04642 6.15529 7.49876 5.77674C7.78722 5.60507 7.98521 5.34999 8.07197 5.03706C8.18728 4.62068 8.10237 4.1309 7.83023 3.65372C7.76608 3.54397 6.23926 0.958231 4.83256 0.214098C4.57006 0.0750601 4.27418 0.00164795 3.97757 0.00164795C3.4889 0.00164795 3.02914 0.192223 2.68359 0.537409L1.74258 1.47805C0.254311 2.96594 -0.284416 4.65257 0.140485 6.49084C0.494939 8.02286 1.5279 9.65313 3.21119 11.336L8.66334 16.7882C10.7938 18.9186 12.8249 19.9991 14.7002 19.9991C14.7002 19.9991 14.7002 19.9991 14.7006 19.9991C16.0798 19.9991 17.3657 19.4129 18.5213 18.2572L19.462 17.3165C20.0337 16.7452 20.1635 15.8813 19.7857 15.1676Z" fill="black"/>
</g>
<defs>
<clipPath id="clip0_101_141">
<rect width="20" height="20" fill="white"/>
</clipPath>
</defs>
</svg>
