<svg width="20" height="20" viewBox="0 0 20 20" fill="none" xmlns="http://www.w3.org/2000/svg">
<g clip-path="url(#clip0_101_106)">
<path d="M10.0003 19.9998C15.5231 19.9998 20.0002 15.5227 20.0002 9.99991C20.0002 4.47711 15.5231 0 10.0003 0C4.47749 0 0.00038147 4.47711 0.00038147 9.99991C0.00038147 15.5227 4.47749 19.9998 10.0003 19.9998Z" fill="black"/>
<path d="M16.1254 7.18662C15.6969 7.37664 15.2359 7.50517 14.7524 7.56257C15.246 7.26684 15.6248 6.79891 15.8036 6.24043C15.3418 6.51441 14.83 6.71317 14.2858 6.8203C13.8497 6.35594 13.2285 6.06573 12.5406 6.06573C11.2208 6.06573 10.1504 7.13617 10.1504 8.456C10.1504 8.64334 10.1716 8.8257 10.2126 9.00075C8.22607 8.90111 6.4647 7.94956 5.2857 6.503C5.07999 6.85595 4.96199 7.26684 4.96199 7.70482C4.96199 8.53389 5.38428 9.26582 6.02529 9.69435C5.63366 9.68205 5.26485 9.57456 4.94273 9.39506C4.94256 9.40522 4.94256 9.41538 4.94256 9.42536C4.94256 10.5835 5.76682 11.5495 6.86008 11.7689C6.65971 11.8238 6.44812 11.8529 6.23047 11.8529C6.0761 11.8529 5.92654 11.8381 5.78073 11.8103C6.08483 12.7597 6.96739 13.4508 8.01358 13.4702C7.19538 14.1114 6.16487 14.4934 5.0447 14.4934C4.85218 14.4934 4.66144 14.4822 4.47481 14.4599C5.53206 15.1383 6.78877 15.5339 8.13854 15.5339C12.5351 15.5339 14.9394 11.8917 14.9394 8.73283C14.9394 8.62926 14.9371 8.52605 14.9325 8.42373C15.3999 8.08682 15.8051 7.66596 16.1254 7.18662Z" fill="#F1F2F2"/>
</g>
<defs>
<clipPath id="clip0_101_106">
<rect width="20" height="20" fill="white"/>
</clipPath>
</defs>
</svg>
