<svg width="116" height="130" viewBox="0 0 116 130" fill="none" xmlns="http://www.w3.org/2000/svg">
<path d="M57.9992 129.697C26.0159 129.697 0.000854492 107.512 0.000854492 80.2474C0.000854492 39.5232 53.4275 2.26198 55.7008 0.695853C57.0868 -0.263619 59.0901 -0.227479 60.4249 0.783252C62.6956 2.49126 116 43.0274 116 80.2472C116 107.513 89.9842 129.697 58.0016 129.697L57.9992 129.697ZM57.9033 7.30083C47.557 15.0318 7.33123 47.2026 7.33123 80.2425C7.33123 104.064 30.0605 123.442 57.9992 123.442C85.9379 123.442 108.667 104.063 108.667 80.2425C108.667 50.0474 68.1533 15.5449 57.9033 7.30083Z" fill="#31758C"/>
</svg>
