<svg width="160" height="88" viewBox="0 0 160 88" fill="none" xmlns="http://www.w3.org/2000/svg">
<path d="M157.874 40.3269L157.873 40.3257C139.734 16.5189 118.426 3.15538 96.2868 1.45638L96.2859 1.45631C76.1643 -0.105273 56.0474 8.15532 38.2143 25.4741L38.2137 25.4746C38.0777 25.6065 37.8418 25.8286 37.5584 26.014C37.3035 26.1807 36.8474 26.4278 36.2994 26.3792M157.874 40.3269L36.3841 25.3828M157.874 40.3269C159.373 42.2876 159.376 45.0472 157.878 47.0104L157.877 47.0111C138.327 72.6791 115.352 86.0926 91.477 86.0926C73.0183 86.0926 54.6218 77.789 38.2849 61.9456C38.2728 61.9338 38.2582 61.9193 38.2413 61.9026C38.1179 61.7804 37.8742 61.5391 37.6021 61.3519C37.3416 61.1727 36.7948 60.8579 36.1467 61.016C35.7279 61.075 35.3098 61.2769 34.9295 61.546C34.4978 61.8515 34.048 62.2902 33.6057 62.8749L33.6036 62.8777C31.1455 66.1512 28.5472 69.2417 25.8789 72.0641C20.4054 77.8068 14.6573 82.3816 8.77131 85.7068L8.76915 85.7081C7.98577 86.1532 7.11741 86.3718 6.24973 86.3718C5.11184 86.3718 3.97354 85.9918 3.0354 85.2393C1.37561 83.9071 0.638401 81.6847 1.17434 79.5828L5.43259 62.889C8.51571 50.8615 8.51553 36.5075 5.43276 24.4453L5.43274 24.4452L1.17418 7.78956L1.17411 7.78928C0.634859 5.68284 1.37347 3.45558 3.03319 2.13193L3.03404 2.13125C4.68857 0.808783 6.94542 0.632417 8.78032 1.67252C17.7088 6.73625 26.0819 14.4048 33.659 24.4839M157.874 40.3269L34.4589 23.8837M36.2994 26.3792C36.2962 26.379 36.2929 26.3787 36.2897 26.3784L36.3841 25.3828M36.2994 26.3792C36.3005 26.3793 36.3016 26.3794 36.3027 26.3795L36.3841 25.3828M36.2994 26.3792C35.8526 26.3419 35.3973 26.124 34.9886 25.8315C34.559 25.524 34.1054 25.0807 33.659 24.4839M36.3841 25.3828C35.99 25.3506 35.2506 24.9427 34.4589 23.8837M33.659 24.4839C33.6592 24.4841 33.6594 24.4844 33.6596 24.4846L34.4589 23.8837M33.659 24.4839C33.6587 24.4834 33.6583 24.4829 33.658 24.4825L34.4589 23.8837M15.9251 64.27C19.0556 51.0806 19.0477 36.1727 15.9007 22.9492L15.07 19.4588L17.5863 22.0163C20.2604 24.7342 22.8593 27.7734 25.3663 31.1073L15.9251 64.27ZM15.9251 64.27C14.9949 66.2278 14.5362 67.2254 14.3933 67.5876C14.3745 67.6354 14.3516 67.6958 14.3332 67.7561C14.3254 67.7818 14.3077 67.8414 14.296 67.915C14.2905 67.9493 14.2797 68.0256 14.2838 68.122L14.2839 68.1237C14.2863 68.1812 14.2981 68.4604 14.5134 68.7208C14.6436 68.8783 14.8301 69.0048 15.0573 69.0579C15.2686 69.1073 15.4482 69.078 15.5618 69.0455C15.7649 68.9874 15.8953 68.8794 15.9295 68.8511C16.0201 68.7759 16.0789 68.6994 16.0925 68.682C16.1359 68.6263 16.1727 68.5688 16.1941 68.5347C16.2862 68.3881 16.4304 68.1289 16.5883 67.839C16.8043 67.4422 17.0791 66.926 17.3516 66.414C17.4887 66.1563 17.6253 65.8997 17.7535 65.66C17.9471 65.2982 18.1215 64.9748 18.2548 64.7348C18.3218 64.6141 18.3748 64.5212 18.4127 64.4575C18.418 64.4486 18.4227 64.4408 18.4268 64.434C20.7861 61.9269 23.1082 59.1693 25.3078 56.242M15.9251 64.27L35.497 37.1632C39.0598 37.4458 42.572 36.1148 45.4251 33.3457C60.9433 18.2754 78.326 10.9054 95.5196 12.2431C113.564 13.6305 131.092 24.3235 146.484 43.0279L147.007 43.6631L146.484 44.2984C129.884 64.4879 110.956 75.2647 91.4802 75.2647C75.6352 75.2647 59.7344 67.8822 45.4748 54.0591C42.8414 51.509 39.6489 50.1689 36.3944 50.1689C36.078 50.1689 35.7585 50.1819 35.4351 50.2053M15.9251 64.27C15.917 64.3039 15.9089 64.3379 15.9008 64.3718L16.1438 64.4298C16.0938 64.5228 16.0423 64.6188 15.9899 64.7167C15.857 64.9653 15.7178 65.2267 15.5795 65.4867C15.3099 65.9931 15.0434 66.4938 14.8317 66.8827C14.667 67.1852 14.5533 67.3869 14.5005 67.471C14.4857 67.4946 14.4932 67.4805 14.5153 67.4521L14.5158 67.4515C14.522 67.4435 14.5714 67.3791 14.6523 67.312L14.6526 67.3117C14.6839 67.2857 14.8114 67.18 15.0115 67.1227C15.1239 67.0905 15.3026 67.0613 15.5129 67.1105C15.5687 67.1236 15.622 67.141 15.6726 67.1623M15.9251 64.27L15.6726 67.1623M25.3078 56.242C25.3077 56.2421 25.3076 56.2422 25.3076 56.2422L24.5083 55.6413L25.3078 56.242ZM25.3078 56.242C28.0339 52.6161 31.6404 50.5125 35.4351 50.2053M35.4351 50.2053C35.4363 50.2052 35.4376 50.2051 35.4389 50.205L35.3585 49.2082L35.4308 50.2056C35.4322 50.2055 35.4337 50.2054 35.4351 50.2053ZM15.7868 67.2193C15.8919 67.2803 15.982 67.3584 16.0546 67.4462C16.2681 67.7044 16.2797 67.9803 16.282 68.0352L16.282 68.0372C16.286 68.1299 16.2756 68.2013 16.2711 68.2297C16.2612 68.2914 16.2477 68.3345 16.2464 68.339C16.2442 68.3462 16.2427 68.3503 16.2428 68.3504C16.2428 68.3504 16.2458 68.3417 16.2538 68.3215C16.3675 68.0334 16.8006 67.0867 17.7766 65.0334L17.8218 64.9385L17.8462 64.8363C17.9008 64.6075 17.9545 64.3782 18.0073 64.1484C18.0077 64.1465 18.0081 64.1446 18.0086 64.1427C18.0815 63.8253 18.1526 63.5069 18.2219 63.1877L15.7868 67.2193ZM15.7868 67.2193C15.2756 68.1639 15.0208 68.5864 15.6726 67.1623M15.7868 67.2193L15.6726 67.1623M18.3685 64.4959L18.3755 64.4885C18.3732 64.4909 18.3709 64.4934 18.3685 64.4959ZM35.4968 37.1632C31.7141 36.8568 28.1057 34.7441 25.3664 31.1075L35.4968 37.1632Z" fill="#31758C" stroke="#EDF1EC" stroke-width="2"/>
</svg>
