<svg width="20" height="28" viewBox="0 0 20 28" fill="none" xmlns="http://www.w3.org/2000/svg">
<path d="M13.9726 11C13.0594 11 12.2374 10.8205 11.5068 10.4615C10.8067 10.0726 10.1522 9.63889 9.54338 9.16026C8.93455 8.68162 8.34094 8.26282 7.76256 7.90385C7.18417 7.51496 6.57534 7.32051 5.93607 7.32051C5.2968 7.32051 4.68798 7.54487 4.10959 7.99359C3.5312 8.41239 2.99848 9.08547 2.51142 10.0128L0 8.21795C0.913242 6.72222 1.88737 5.6453 2.92237 4.98718C3.95738 4.32906 4.99239 4 6.0274 4C6.94064 4 7.74734 4.19444 8.44749 4.58333C9.17808 4.94231 9.84779 5.36111 10.4566 5.83974C11.0654 6.31838 11.6591 6.75214 12.2374 7.14103C12.8158 7.5 13.4247 7.67949 14.0639 7.67949C14.7032 7.67949 15.2968 7.47009 15.8447 7.05128C16.4231 6.60256 16.9711 5.91453 17.4886 4.98718L20 6.82692C19.0868 8.29273 18.1126 9.3547 17.0776 10.0128C16.0426 10.6709 15.0076 11 13.9726 11Z" fill="#EDF1EC"/>
<path d="M13.9726 19C13.0594 19 12.2374 18.8462 11.5068 18.5385C10.8067 18.2051 10.1522 17.8333 9.54338 17.4231C8.93455 17.0128 8.34094 16.6538 7.76256 16.3462C7.18417 16.0128 6.57534 15.8462 5.93607 15.8462C5.2968 15.8462 4.68798 16.0385 4.10959 16.4231C3.5312 16.7821 2.99848 17.359 2.51142 18.1538L0 16.6154C0.913242 15.3333 1.88737 14.4103 2.92237 13.8462C3.95738 13.2821 4.99239 13 6.0274 13C6.94064 13 7.74734 13.1667 8.44749 13.5C9.17808 13.8077 9.84779 14.1667 10.4566 14.5769C11.0654 14.9872 11.6591 15.359 12.2374 15.6923C12.8158 16 13.4247 16.1538 14.0639 16.1538C14.7032 16.1538 15.2968 15.9744 15.8447 15.6154C16.4231 15.2308 16.9711 14.641 17.4886 13.8462L20 15.4231C19.0868 16.6795 18.1126 17.5897 17.0776 18.1538C16.0426 18.7179 15.0076 19 13.9726 19Z" fill="#EDF1EC"/>
<path d="M13.9726 28C13.0594 28 12.2374 27.8205 11.5068 27.4615C10.8067 27.0726 10.1522 26.6389 9.54338 26.1603C8.93455 25.6816 8.34094 25.2628 7.76256 24.9038C7.18417 24.515 6.57534 24.3205 5.93607 24.3205C5.2968 24.3205 4.68798 24.5449 4.10959 24.9936C3.5312 25.4124 2.99848 26.0855 2.51142 27.0128L0 25.2179C0.913242 23.7222 1.88737 22.6453 2.92237 21.9872C3.95738 21.3291 4.99239 21 6.0274 21C6.94064 21 7.74734 21.1944 8.44749 21.5833C9.17808 21.9423 9.84779 22.3611 10.4566 22.8397C11.0654 23.3184 11.6591 23.7521 12.2374 24.141C12.8158 24.5 13.4247 24.6795 14.0639 24.6795C14.7032 24.6795 15.2968 24.4701 15.8447 24.0513C16.4231 23.6026 16.9711 22.9145 17.4886 21.9872L20 23.8269C19.0868 25.2927 18.1126 26.3547 17.0776 27.0128C16.0426 27.6709 15.0076 28 13.9726 28Z" fill="#EDF1EC"/>
</svg>
